<mxfile host="app.diagrams.net" modified="2020-11-02T22:09:29.293Z" agent="5.0 (Windows NT 10.0; Win64; x64) AppleWebKit/537.36 (KHTML, like Gecko) Chrome/86.0.4240.111 Safari/537.36" etag="hqVTf0el8wsEjpe1BxUJ" version="13.8.8" type="github">
  <diagram id="4phmZAVWYSEaynmrf5H4" name="Page-1">
    <mxGraphModel dx="1038" dy="580" grid="1" gridSize="10" guides="1" tooltips="1" connect="1" arrows="1" fold="1" page="1" pageScale="1" pageWidth="827" pageHeight="1169" math="0" shadow="0">
      <root>
        <mxCell id="0" />
        <mxCell id="1" parent="0" />
        <mxCell id="WHVUYdb8bwfK4FFGxTrf-1" value="" style="rhombus;whiteSpace=wrap;html=1;" vertex="1" parent="1">
          <mxGeometry x="334" y="220" width="80" height="80" as="geometry" />
        </mxCell>
        <mxCell id="WHVUYdb8bwfK4FFGxTrf-8" style="edgeStyle=orthogonalEdgeStyle;rounded=0;orthogonalLoop=1;jettySize=auto;html=1;exitX=0.5;exitY=1;exitDx=0;exitDy=0;entryX=0.5;entryY=0;entryDx=0;entryDy=0;" edge="1" parent="1" source="WHVUYdb8bwfK4FFGxTrf-2" target="WHVUYdb8bwfK4FFGxTrf-1">
          <mxGeometry relative="1" as="geometry" />
        </mxCell>
        <mxCell id="WHVUYdb8bwfK4FFGxTrf-2" value="Start" style="ellipse;whiteSpace=wrap;html=1;" vertex="1" parent="1">
          <mxGeometry x="314" y="80" width="120" height="80" as="geometry" />
        </mxCell>
        <mxCell id="WHVUYdb8bwfK4FFGxTrf-3" value="open / close claw" style="rounded=1;whiteSpace=wrap;html=1;" vertex="1" parent="1">
          <mxGeometry x="540" y="230" width="120" height="60" as="geometry" />
        </mxCell>
        <mxCell id="WHVUYdb8bwfK4FFGxTrf-6" value="" style="endArrow=classic;startArrow=classic;html=1;entryX=0;entryY=0.5;entryDx=0;entryDy=0;exitX=1;exitY=0.5;exitDx=0;exitDy=0;" edge="1" parent="1" source="WHVUYdb8bwfK4FFGxTrf-1" target="WHVUYdb8bwfK4FFGxTrf-3">
          <mxGeometry width="50" height="50" relative="1" as="geometry">
            <mxPoint x="390" y="320" as="sourcePoint" />
            <mxPoint x="440" y="270" as="targetPoint" />
          </mxGeometry>
        </mxCell>
        <mxCell id="WHVUYdb8bwfK4FFGxTrf-7" value="if btn 6D || 6U" style="text;html=1;strokeColor=none;fillColor=none;align=center;verticalAlign=middle;whiteSpace=wrap;rounded=0;" vertex="1" parent="1">
          <mxGeometry x="430" y="240" width="100" height="20" as="geometry" />
        </mxCell>
        <mxCell id="WHVUYdb8bwfK4FFGxTrf-9" value="arm up /down" style="rounded=1;whiteSpace=wrap;html=1;" vertex="1" parent="1">
          <mxGeometry x="500" y="310" width="120" height="60" as="geometry" />
        </mxCell>
        <mxCell id="WHVUYdb8bwfK4FFGxTrf-10" value="" style="endArrow=classic;startArrow=classic;html=1;entryX=0;entryY=0.5;entryDx=0;entryDy=0;exitX=1;exitY=1;exitDx=0;exitDy=0;" edge="1" parent="1" source="WHVUYdb8bwfK4FFGxTrf-1" target="WHVUYdb8bwfK4FFGxTrf-9">
          <mxGeometry width="50" height="50" relative="1" as="geometry">
            <mxPoint x="390" y="320" as="sourcePoint" />
            <mxPoint x="440" y="270" as="targetPoint" />
          </mxGeometry>
        </mxCell>
        <mxCell id="WHVUYdb8bwfK4FFGxTrf-11" value="if btn 5U || btn5U" style="text;html=1;strokeColor=none;fillColor=none;align=center;verticalAlign=middle;whiteSpace=wrap;rounded=0;" vertex="1" parent="1">
          <mxGeometry x="420" y="280" width="110" height="20" as="geometry" />
        </mxCell>
      </root>
    </mxGraphModel>
  </diagram>
</mxfile>
